<?xml version="1.0" encoding="UTF-8"?><svg id="Layer_2" xmlns="http://www.w3.org/2000/svg" viewBox="0 0 1095.75 1631.3"><g id="Layer_1-2"><path d="M1095.17,1512.44c-1.48-154.19-1.85-308.41-5.13-462.57-1.68-78.78-7.04-157.6-14.01-236.11-2.91-32.76-11.89-65.57-22.37-96.93-20.38-60.99-60.36-100.62-129.15-104.46-.23-4.28-.72-8.11-.59-11.92,1.72-49.89,3.37-99.79,5.35-149.67,2.52-63.61-6.23-125.54-25.41-186.26-17.42-55.13-32.22-111.13-51.04-165.76-10.76-31.25-27.01-60.64-41.49-90.52-1.43-2.96-8.07-5.27-11.77-4.67-3.02,.49-7.27,5.68-7.43,8.96-.36,7.35,.33,15.2,2.64,22.17,7.37,22.15,15.01,44.26,23.87,65.85,5.24,12.79,9.45,25.1,5.11,40.08C778.26,90.69,744.22,29.32,679.36,0c-9.91,15.59-7.64,29.59,5.26,41.82,20.4,19.34,40.11,39.41,60.7,58.54,16.78,15.58,17.76,37.78,26.01,57.65-15.36-36.73-47.69-44.15-81.41-49.79-21.49-3.6-42.78-8.34-64.17-12.47-4.19-.81-8.46-1.18-12.9-1.78-4.89,12.02-1.35,21.1,8.44,26.09,13.34,6.79,27.18,13.9,41.63,16.96,33.34,7.04,58,25.07,76.71,52.75,4.18,6.18,9.68,11.47,13.69,18.65-6.63-3.67-13.16-7.56-19.93-10.95-6.01-3.01-12.39-5.28-18.44-8.23-16.96-8.27-30.8-7.38-45.29,7.6-18.64,19.26-40.15,35.78-60.73,53.12-8.42,7.1-4.91,12.72,1.05,18.06-4.09,3.47-7.75,6.58-12.02,10.2,3.23,2.78,5.09,4.86,7.37,6.25,13.39,8.16,23.67,18.84,32.34,32.23,5.67,8.76,15.19,16.55,24.74,20.98,24.03,11.16,49.07,20.12,73.65,30.08,3.58,1.45,7.72,2.8,10.2,5.49,19.86,21.6,38.27,45.07,69.71,48.35-15.56,68.21-30.7,134.52-46.16,202.31-24.26,1.1-49.87,1.88-74.61-6.97-18.77-6.72-29.75-20.89-29.81-40.39-.11-35.16,.87-70.39,3.29-105.46,1.84-26.74,6.72-25.66-22.47-36.5-39.24-14.58-80.38-21.23-122.21-22.83-9.06-.35-18.26,.38-27.27,1.54-30.55,3.92-33.93,7.92-35.42,37.8-1.84,36.82-4.27,73.61-5.87,110.43-.77,17.74-9.05,29.65-25.74,34.34-12.87,3.61-26.3,6.12-39.62,7.03-17.31,1.18-34.76,.29-52.01,.29-13.99-60.19-27.85-119.83-42.18-181.48,31.89-3.44,50.14-27.14,70.27-48.35,2.53-2.66,6.53-4.14,10.09-5.56,23.17-9.24,46.38-18.4,69.65-27.42,13.44-5.21,22.93-14.5,31.43-26.04,7.31-9.92,17.08-18.06,25.98-26.76,3.04-2.98,6.74-5.28,11.52-8.96-4.68-3.89-8.37-6.96-12.05-10.02,8.21-10.92,7.21-12.14-3.58-21.25-22.7-19.16-44.38-39.53-67.1-58.67-4.06-3.42-11.77-5.75-16.6-4.38-13.61,3.87-26.66,9.78-39.79,15.22-4.9,2.03-9.41,4.99-15.58,5.5,14.55-17.04,28.93-34.22,43.81-50.96,2.36-2.65,6.88-3.53,10.55-4.83,22.78-8.05,45.82-15.44,68.35-24.14,16.73-6.46,21.1-15.3,16.78-31.47-13.7,2.54-27.62,4.93-41.45,7.72-20.97,4.23-41.77,9.51-62.87,12.9-20.03,3.21-34.01,13.89-44.5,30.41-2.49,3.93-5.28,7.67-9.02,10.94,7.26-17.99,8.58-38.43,23.68-52.97,20.81-20.05,41.22-40.54,62.25-60.35,12.96-12.2,15.56-26.09,5.95-41.59-26.53,9.94-48.07,27.27-66.52,48.07-24.71,27.85-48.09,56.88-72.03,85.42-1.74,2.08-3.36,4.25-5.04,6.38-1.25-.24-2.49-.47-3.74-.71,1.24-9.91,.95-20.34,4.02-29.65,8.8-26.66,19.2-52.78,28.42-79.31,1.89-5.43,2.46-11.89,1.53-17.52-.62-3.78-4.48-9.05-7.77-9.8-3.37-.76-9.98,2.14-11.44,5.21-15.97,33.51-35.44,65.24-45.63,101.63-15.69,56.04-34.43,111.22-50.75,167.1-17.55,60.13-25.73,121.31-20.7,184.32,3.46,43.37,3.42,87.02,5.01,132.26-6.84,0-11.89-.47-16.82,.08-27.9,3.11-55.92,5.55-83.61,10.02-26.18,4.23-43.96,20.11-50.26,46.15-9.86,40.75-20.64,81.45-27.26,122.77-15.52,96.92-13.18,194.07-2.24,291.57,5.82,51.86,4.92,104.49,6.96,156.77,5.2,133.49,10.33,266.98,15.53,400.47,.12,3.15,.63,6.28,.97,9.42H1095.75c-.18-39.62-.2-79.25-.58-118.87ZM760.65,276.35c-7.69,7.36-15.93,14.14-24.14,20.96-4.24,4.52-8.26,6.83-8.9,7.15-8.85,4.4-15.92,4.77-24.62,5.23-12.16,.64-26.92-5.03-31.83-8.96-1.07-.79-2.1-1.59-3.09-2.43l-.08,.06c-.46-.45-.91-.89-1.37-1.34-.6-.55-1.19-1.12-1.74-1.7-9.49-9.27-19.02-18.58-28.92-28.25,10.11-9.33,19.74-18.22,29.35-27.09,.13-.13,.25-.25,.38-.35,15.91-12.35,28.83-12.04,36.5-12.04,21.06,0,28.21,7.53,33.36,10.95,.78,.52,1.77,1.49,2.83,2.83,7.93,7.88,16.04,15.61,23.3,24.06,1.73,2.02,1.05,8.93-1.05,10.94Zm-409.34-12.33c4.92-6.38,10.73-12.08,16.31-17.96,.54-.75,1.12-1.36,1.74-1.85,15.91-12.46,30.58-13.19,37.55-13.68,19.06-1.33,35.2,8.42,40.38,11.36h.02c11.57,6.17,19.13,16.54,27.53,24.69-10.21,14.47-22.01,27.84-42.71,34.75-8.85,4.44-15.92,4.81-24.62,5.27-12.16,.65-26.92-5.07-31.83-9.04-1.3-.97-2.55-1.97-3.73-3.02h0c-.08-.07-.16-.14-.24-.22-.53-.47-1.04-.95-1.53-1.45-7.27-6.78-13.02-10.83-19.95-18.63-1.6-1.8-.77-7.82,1.09-10.24Z"/></g></svg>